<svg version="1.0" xmlns="http://www.w3.org/2000/svg"
 width="50.000000pt" height="50.000000pt" viewBox="0 0 800.000000 800.000000"
 preserveAspectRatio="xMidYMid meet">

<g transform="translate(0.000000,800.000000) scale(0.100000,-0.100000)"
fill="#000000" stroke="none">
<path d="M3734 6461 c-26 -7 -167 -79 -211 -108 -6 -5 41 -8 105 -8 174 -1
199 -12 332 -146 125 -126 180 -159 273 -159 31 0 57 2 57 5 0 3 -19 29 -42
59 -24 29 -72 101 -107 159 -80 132 -133 186 -193 198 -52 10 -171 10 -214 0z"/>
<path d="M4190 6373 c0 -4 7 -17 15 -27 8 -10 26 -55 41 -98 14 -44 37 -91 50
-106 l23 -27 0 50 c1 56 -22 114 -64 163 -28 33 -65 59 -65 45z"/>
<path d="M3497 6250 c-49 -15 -107 -41 -130 -57 l-42 -28 60 -6 c35 -3 91 -20
135 -39 103 -46 214 -53 279 -18 24 13 50 33 58 45 14 20 12 25 -24 63 -31 33
-50 44 -98 56 -87 20 -139 17 -238 -16z"/>
<path d="M3897 6073 c-4 -3 -7 -19 -7 -34 0 -46 36 -62 118 -54 94 9 106 20
41 35 -30 7 -72 23 -95 36 -45 26 -48 27 -57 17z"/>
<path d="M3263 6051 c-44 -27 -114 -149 -120 -209 l-5 -47 43 42 c72 69 86 71
222 31 108 -32 149 -24 240 49 l75 61 -42 5 c-23 3 -68 18 -100 33 -124 57
-253 71 -313 35z"/>
<path d="M4397 6044 c-10 -11 -8 -83 3 -104 5 -10 38 -35 72 -56 88 -52 119
-83 204 -206 41 -60 77 -108 80 -108 7 0 -60 121 -105 190 -23 35 -64 76 -115
114 -67 50 -83 69 -105 118 -15 32 -30 56 -34 52z"/>
<path d="M4170 5921 c-46 -48 -84 -126 -100 -204 -13 -64 -10 -89 27 -197 18
-54 24 -88 20 -123 l-4 -48 25 23 c45 41 63 99 71 227 7 115 9 121 54 212 26
52 47 99 47 105 0 18 -46 44 -76 44 -18 0 -39 -13 -64 -39z"/>
<path d="M3792 5924 c-28 -19 -60 -81 -68 -132 -7 -46 9 -82 55 -126 32 -31
41 -26 16 8 -22 29 -19 114 4 152 14 23 34 36 73 49 72 24 76 30 28 49 -51 20
-79 20 -108 0z"/>
<path d="M3316 5769 c-20 -17 -49 -58 -66 -92 -26 -55 -31 -78 -40 -197 -19
-271 -21 -300 -15 -300 15 0 82 41 102 62 32 34 92 198 103 281 11 85 29 139
64 196 l27 42 -43 19 c-61 28 -91 25 -132 -11z"/>
<path d="M3588 5772 c-34 -40 -65 -123 -79 -212 -11 -63 -10 -76 9 -132 46
-140 63 -161 77 -98 4 17 26 56 50 88 23 32 48 69 55 82 18 33 6 82 -37 153
-22 37 -40 80 -43 106 l-5 45 -27 -32z"/>
<path d="M3950 5719 c-23 -51 -24 -81 -9 -198 l12 -86 -32 -64 c-18 -34 -30
-65 -27 -68 3 -3 27 10 53 29 72 52 77 73 52 265 -11 87 -22 160 -25 162 -2 2
-13 -16 -24 -40z"/>
<path d="M3133 5665 c-60 -72 -73 -102 -73 -174 0 -59 18 -196 25 -189 2 2 10
55 19 118 17 122 34 191 60 253 9 20 14 37 12 37 -3 0 -22 -20 -43 -45z"/>
<path d="M4376 5697 c-25 -19 -13 -51 28 -77 18 -11 36 -20 39 -20 3 0 4 25 4
55 -2 52 -3 55 -28 55 -14 0 -33 -6 -43 -13z"/>
<path d="M3802 5460 c-12 -26 -51 -85 -86 -131 -79 -104 -89 -131 -75 -207 12
-61 43 -132 59 -132 6 0 10 35 10 83 1 116 13 160 75 258 39 61 55 97 55 120
0 56 -13 59 -38 9z"/>
<path d="M4540 5445 c0 -8 -7 -15 -16 -15 -10 0 -37 -17 -62 -37 -25 -21 -57
-46 -71 -55 l-26 -18 43 0 c53 0 77 12 96 49 8 15 29 34 46 41 33 14 36 20 18
38 -16 16 -28 15 -28 -3z"/>
<path d="M4830 5395 c-19 -14 -42 -25 -52 -25 -25 0 -23 -11 12 -55 24 -30 30
-48 30 -85 0 -127 -130 -189 -302 -144 -33 8 -63 12 -66 9 -4 -3 7 -17 23 -30
25 -20 41 -24 100 -25 101 0 139 14 200 73 39 38 56 64 65 97 7 25 29 71 51
104 21 32 39 69 39 82 0 20 -5 24 -33 24 -20 0 -47 -10 -67 -25z"/>
<path d="M4122 5274 c-21 -25 -54 -71 -73 -102 -34 -56 -34 -58 -30 -152 11
-252 9 -278 -32 -366 -20 -45 -37 -84 -37 -87 0 -3 32 9 72 26 99 44 168 110
215 204 33 68 37 84 37 152 0 66 -5 89 -42 178 -23 56 -45 122 -48 147 -4 25
-10 46 -15 46 -4 0 -25 -21 -47 -46z"/>
<path d="M3430 5253 c-20 -25 -22 -37 -18 -105 4 -71 10 -88 61 -189 47 -92
57 -120 57 -163 l1 -51 45 50 c71 76 79 116 43 188 -12 23 -42 66 -66 96 -52
64 -83 121 -83 153 0 44 -15 52 -40 21z"/>
<path d="M3914 5208 c-21 -18 -50 -51 -66 -72 -26 -36 -28 -46 -28 -134 l0
-96 31 30 c39 37 67 90 75 146 4 23 15 62 26 86 33 79 21 92 -38 40z"/>
<path d="M3306 5113 c-37 -108 -28 -209 25 -273 17 -21 20 -21 14 -5 -14 44
-27 194 -22 258 3 37 4 67 2 67 -2 0 -10 -21 -19 -47z"/>
<path d="M4600 4940 c-43 -36 -53 -36 -147 -5 -42 14 -77 24 -80 22 -7 -8 66
-66 110 -88 23 -12 54 -32 69 -46 l26 -25 21 40 c11 22 30 44 41 47 23 7 44
50 36 72 -9 22 -40 15 -76 -17z"/>
<path d="M3846 4838 c-147 -145 -201 -255 -212 -436 l-5 -97 47 50 c70 75 249
316 262 355 14 40 16 210 2 210 -5 0 -47 -37 -94 -82z"/>
<path d="M3587 4689 c-9 -20 -19 -59 -23 -87 -9 -67 9 -70 37 -7 16 37 18 53
11 88 l-9 42 -16 -36z"/>
<path d="M3367 3500 c-114 -20 -222 -105 -275 -218 l-27 -57 -3 -852 -3 -853
196 0 195 0 2 553 3 552 278 3 277 2 0 195 0 195 -281 0 -280 0 3 48 3 47 278
3 277 2 0 195 0 195 -297 -1 c-164 -1 -320 -5 -346 -9z"/>
<path d="M4252 2653 l3 -858 27 -56 c38 -76 109 -146 188 -183 65 -30 66 -30
268 -34 l202 -4 0 196 0 196 -150 0 -150 0 0 800 0 800 -195 0 -195 0 2 -857z"/>
</g>
</svg>
